<svg viewBox="0 0 1400 400" xmlns="http://www.w3.org/2000/svg" fill="none" stroke="currentColor" stroke-width="1.2" stroke-linecap="round" stroke-linejoin="round">
  <!-- Royal Courts of Justice, London — simplified architectural outline -->

  <!-- Ground line -->
  <line x1="0" y1="380" x2="1400" y2="380"/>

  <!-- Left wing -->
  <rect x="60" y="200" width="240" height="180"/>
  <!-- Left wing windows row 1 -->
  <path d="M 90 240 L 90 280 M 90 240 Q 105 225 120 240 L 120 280 M 90 280 L 120 280"/>
  <path d="M 140 240 L 140 280 M 140 240 Q 155 225 170 240 L 170 280 M 140 280 L 170 280"/>
  <path d="M 190 240 L 190 280 M 190 240 Q 205 225 220 240 L 220 280 M 190 280 L 220 280"/>
  <path d="M 240 240 L 240 280 M 240 240 Q 255 225 270 240 L 270 280 M 240 280 L 270 280"/>
  <!-- Left wing windows row 2 -->
  <path d="M 90 300 L 90 340 M 90 300 Q 105 285 120 300 L 120 340 M 90 340 L 120 340"/>
  <path d="M 140 300 L 140 340 M 140 300 Q 155 285 170 300 L 170 340 M 140 340 L 170 340"/>
  <path d="M 190 300 L 190 340 M 190 300 Q 205 285 220 300 L 220 340 M 190 340 L 220 340"/>
  <path d="M 240 300 L 240 340 M 240 300 Q 255 285 270 300 L 270 340 M 240 340 L 270 340"/>
  <!-- Left wing roofline with battlements -->
  <path d="M 60 200 L 60 190 L 75 190 L 75 200 M 90 200 L 90 190 L 105 190 L 105 200 M 120 200 L 120 190 L 135 190 L 135 200 M 150 200 L 150 190 L 165 190 L 165 200 M 180 200 L 180 190 L 195 190 L 195 200 M 210 200 L 210 190 L 225 190 L 225 200 M 240 200 L 240 190 L 255 190 L 255 200 M 270 200 L 270 190 L 285 190 L 285 200"/>

  <!-- Left tower -->
  <rect x="300" y="140" width="60" height="240"/>
  <path d="M 295 140 L 330 70 L 365 140"/>
  <path d="M 330 70 L 330 50"/>
  <!-- Tower windows -->
  <path d="M 312 165 L 312 200 M 312 165 Q 322 150 332 165 L 332 200 M 312 200 L 332 200"/>
  <path d="M 336 165 L 336 200 M 336 165 Q 346 150 356 165 L 356 200 M 336 200 L 356 200"/>
  <path d="M 312 220 L 312 260 M 312 220 Q 330 200 348 220 L 348 260 M 312 260 L 348 260"/>
  <path d="M 312 280 L 312 340 M 312 280 Q 330 265 348 280 L 348 340 M 312 340 L 348 340"/>

  <!-- Central section — grand entrance -->
  <rect x="360" y="160" width="340" height="220"/>

  <!-- Central great arch entrance -->
  <path d="M 460 380 L 460 260 Q 530 180 600 260 L 600 380"/>
  <line x1="530" y1="200" x2="530" y2="380"/>
  <!-- Arch detail -->
  <path d="M 475 380 L 475 270 Q 530 205 585 270 L 585 380"/>

  <!-- Rose window above entrance -->
  <circle cx="530" cy="210" r="30"/>
  <circle cx="530" cy="210" r="22"/>
  <circle cx="530" cy="210" r="14"/>
  <!-- Rose window spokes -->
  <line x1="530" y1="180" x2="530" y2="240"/>
  <line x1="500" y1="210" x2="560" y2="210"/>
  <line x1="509" y1="189" x2="551" y2="231"/>
  <line x1="509" y1="231" x2="551" y2="189"/>

  <!-- Central five-part window -->
  <path d="M 410 230 L 410 290 M 410 230 Q 420 218 430 230 L 430 290 M 410 290 L 430 290"/>
  <path d="M 435 230 L 435 290 M 435 230 Q 445 218 455 230 L 455 290 M 435 290 L 455 290"/>
  <path d="M 605 230 L 605 290 M 605 230 Q 615 218 625 230 L 625 290 M 605 290 L 625 290"/>
  <path d="M 630 230 L 630 290 M 630 230 Q 640 218 650 230 L 650 290 M 630 290 L 650 290"/>

  <!-- Central side windows lower -->
  <path d="M 380 310 L 380 360 M 380 310 Q 395 295 410 310 L 410 360 M 380 360 L 410 360"/>
  <path d="M 420 310 L 420 360 M 420 310 Q 435 295 450 310 L 450 360 M 420 360 L 450 360"/>
  <path d="M 610 310 L 610 360 M 610 310 Q 625 295 640 310 L 640 360 M 610 360 L 640 360"/>
  <path d="M 650 310 L 650 360 M 650 310 Q 665 295 680 310 L 680 360 M 650 360 L 680 360"/>

  <!-- Central gable -->
  <path d="M 450 160 L 530 90 L 610 160"/>
  <!-- Finial at top -->
  <line x1="530" y1="90" x2="530" y2="65"/>
  <path d="M 525 68 L 530 55 L 535 68"/>

  <!-- Central pinnacles -->
  <path d="M 445 160 L 445 135 L 455 120 L 465 135 L 465 160"/>
  <path d="M 595 160 L 595 135 L 605 120 L 615 135 L 615 160"/>

  <!-- Right tower -->
  <rect x="700" y="140" width="60" height="240"/>
  <path d="M 695 140 L 730 70 L 765 140"/>
  <path d="M 730 70 L 730 50"/>
  <!-- Tower windows -->
  <path d="M 712 165 L 712 200 M 712 165 Q 722 150 732 165 L 732 200 M 712 200 L 732 200"/>
  <path d="M 736 165 L 736 200 M 736 165 Q 746 150 756 165 L 756 200 M 736 200 L 756 200"/>
  <path d="M 712 220 L 712 260 M 712 220 Q 730 200 748 220 L 748 260 M 712 260 L 748 260"/>
  <path d="M 712 280 L 712 340 M 712 280 Q 730 265 748 280 L 748 340 M 712 340 L 748 340"/>

  <!-- Right wing -->
  <rect x="760" y="200" width="280" height="180"/>
  <!-- Right wing windows row 1 -->
  <path d="M 790 240 L 790 280 M 790 240 Q 805 225 820 240 L 820 280 M 790 280 L 820 280"/>
  <path d="M 840 240 L 840 280 M 840 240 Q 855 225 870 240 L 870 280 M 840 280 L 870 280"/>
  <path d="M 890 240 L 890 280 M 890 240 Q 905 225 920 240 L 920 280 M 890 280 L 920 280"/>
  <path d="M 940 240 L 940 280 M 940 240 Q 955 225 970 240 L 970 280 M 940 280 L 970 280"/>
  <!-- Right wing windows row 2 -->
  <path d="M 790 300 L 790 340 M 790 300 Q 805 285 820 300 L 820 340 M 790 340 L 820 340"/>
  <path d="M 840 300 L 840 340 M 840 300 Q 855 285 870 300 L 870 340 M 840 340 L 870 340"/>
  <path d="M 890 300 L 890 340 M 890 300 Q 905 285 920 300 L 920 340 M 890 340 L 920 340"/>
  <path d="M 940 300 L 940 340 M 940 300 Q 955 285 970 300 L 970 340 M 940 340 L 970 340"/>
  <!-- Right wing battlements -->
  <path d="M 760 200 L 760 190 L 775 190 L 775 200 M 790 200 L 790 190 L 805 190 L 805 200 M 820 200 L 820 190 L 835 190 L 835 200 M 850 200 L 850 190 L 865 190 L 865 200 M 880 200 L 880 190 L 895 190 L 895 200 M 910 200 L 910 190 L 925 190 L 925 200 M 940 200 L 940 190 L 955 190 L 955 200 M 970 200 L 970 190 L 985 190 L 985 200"/>

  <!-- Far right clock tower -->
  <rect x="1040" y="120" width="70" height="260"/>
  <path d="M 1035 120 L 1075 40 L 1115 120"/>
  <path d="M 1075 40 L 1075 15"/>
  <path d="M 1070 18 L 1075 5 L 1080 18"/>
  <!-- Clock face -->
  <circle cx="1075" cy="155" r="20"/>
  <circle cx="1075" cy="155" r="17"/>
  <line x1="1075" y1="155" x2="1075" y2="142"/>
  <line x1="1075" y1="155" x2="1085" y2="155"/>
  <!-- Clock tower windows -->
  <path d="M 1055 195 L 1055 240 M 1055 195 Q 1075 175 1095 195 L 1095 240 M 1055 240 L 1095 240"/>
  <path d="M 1055 260 L 1055 320 M 1055 260 Q 1075 240 1095 260 L 1095 320 M 1055 320 L 1095 320"/>
  <path d="M 1055 335 L 1055 365 M 1055 335 Q 1075 320 1095 335 L 1095 365 M 1055 365 L 1095 365"/>

  <!-- Connecting wing right tower to clock tower -->
  <rect x="760" y="230" width="280" height="150"/>
  <path d="M 990 310 L 990 360 M 990 310 Q 1005 295 1020 310 L 1020 360 M 990 360 L 1020 360"/>

  <!-- Far left extension -->
  <rect x="0" y="250" width="60" height="130"/>
  <path d="M 10 280 L 10 340 M 10 280 Q 25 265 40 280 L 40 340 M 10 340 L 40 340"/>

  <!-- Decorative pinnacles along central section -->
  <path d="M 358 160 L 358 145 L 363 135 L 368 145 L 368 160"/>
  <path d="M 692 160 L 692 145 L 697 135 L 702 145 L 702 160"/>
</svg>
